<?xml version="1.0" encoding="UTF-8"?>
<svg id="estateboxLogo" xmlns="http://www.w3.org/2000/svg" viewBox="0 0 2876.2 951.06">
  <defs>
    <style>
      .cls-1 {
        fill: #ed9f14;
        stroke-width: 0px;
      }

      .cls-2 {
        fill: none;
        opacity: .95;
        stroke: #5798d0;
        stroke-linecap: round;
        stroke-linejoin: round;
        stroke-width: 55px;
      }
    </style>
  </defs>
  <polygon id="box" class="cls-2" points="765.63 139.54 396.56 27.5 27.5 139.54 27.5 788.71 396.56 923.56 765.63 769.97 765.63 139.54"/>
  <g id="texto">
    <path id="e1" class="cls-1" d="m932.32,586.21c-14.95-3.84-28.12-11.88-39.5-24.13-9.11-9.96-15.73-21.35-19.86-34.16-4.13-12.81-6.62-25.9-7.47-39.29v-14.3c0-1.85.14-3.77.43-5.76.85-12.81,3.34-25.41,7.47-37.79,4.12-12.38,10.6-23.41,19.43-33.09,11.38-12.52,24.55-20.71,39.5-24.55,14.94-3.84,30.38-5.76,46.33-5.76l86.68-.43v46.97h-78.57c-16.51.29-29.75,2.78-39.71,7.47-9.97,4.7-15.23,16.44-15.8,35.23l134.08-.43v46.97h-134.08c.57,19.64,5.55,31.6,14.94,35.87,9.39,4.27,22.77,6.4,40.14,6.4l79-.43v46.97h-86.68c-15.95,0-31.38-1.92-46.33-5.76Z"/>
    <path id="s" class="cls-1" d="m1217.34,545.01c.57.29,1.13.43,1.71.43h1.71c7.11-.28,13.66-1.85,19.64-4.7,5.98-2.84,8.97-8.68,8.97-17.51,0-8.25-2.85-13.8-8.54-16.65-5.7-2.84-11.82-4.55-18.36-5.12h-5.12l-51.24-.43c-23.91.29-42.77-2.99-56.58-9.82-13.81-6.83-20.86-24.19-21.14-52.09-.29-26.19,6.83-44.69,21.35-55.51,14.52-10.82,33.87-16.23,58.07-16.23l127.67-.43v46.97h-105.04c-.85.29-1.64.43-2.35.43h-14.3c-5.12.29-10.03,1.43-14.73,3.42-4.7,1.99-7.76,5.7-9.18,11.1-2.28,9.97-.29,16.8,5.98,20.5,6.26,3.7,13.52,5.55,21.78,5.55l53.8-.43c21.06.29,38.71,5.2,52.95,14.73,14.23,9.54,21.78,25.98,22.63,49.32v1.28c.28,18.22-4.91,34.8-15.59,49.75s-25.98,22.42-45.9,22.42h-153.29v-46.97h125.11Z"/>
    <path id="t1" class="cls-1" d="m1361.23,366.95v-81.56h59.35v81.56h62.77v44.83h-62.77v90.95c-.29,22.49,4.84,35.59,15.37,39.28,10.53,3.7,25.05,5.55,43.55,5.55h3.84v44.41h-54.23c-22.49,0-39.43-6.26-50.81-18.79-11.39-12.52-17.08-29.6-17.08-51.24v-110.17h-41.85v-44.83h41.85Z"/>
    <path id="a" class="cls-1" d="m1637.07,366.95c13.09.29,25.69,1.78,37.79,4.48,12.1,2.71,22.98,8.9,32.67,18.57,8.25,7.97,14.02,17.37,17.29,28.18,3.27,10.82,4.91,21.92,4.91,33.31v140.48h-159.7c-23.06,0-40.71-6.33-52.95-19-12.24-12.66-17.79-30.24-16.65-52.73,1.99-27.04,11.53-44.55,28.61-52.52,17.08-7.97,37.43-11.96,61.06-11.96l78.14-.43c.85-18.5-3.92-30.03-14.3-34.59-10.4-4.55-23.56-6.83-39.5-6.83l-99.06-.43v-46.54h121.69Zm-42.7,179.77h74.3v-46.54h-70.03c-.57.29-1.14.43-1.71.43h-1.71c-7.97.29-15.37,1.78-22.2,4.48-6.83,2.71-10.39,9.04-10.67,19-.57,11.1,2.49,17.65,9.18,19.64,6.68,1.99,14.3,3.13,22.84,3.42v-.43Z"/>
    <path id="t2" class="cls-1" d="m1793.77,366.95v-81.56h59.35v81.56h62.77v44.83h-62.77v90.95c-.29,22.49,4.84,35.59,15.37,39.28,10.53,3.7,25.05,5.55,43.55,5.55h3.84v44.41h-54.23c-22.49,0-39.43-6.26-50.81-18.79-11.39-12.52-17.08-29.6-17.08-51.24v-110.17h-41.85v-44.83h41.85Z"/>
    <path id="e2" class="cls-1" d="m1997.23,586.21c-14.95-3.84-28.12-11.88-39.5-24.13-9.11-9.96-15.73-21.35-19.86-34.16-4.13-12.81-6.62-25.9-7.47-39.29v-14.3c0-1.85.14-3.77.43-5.76.85-12.81,3.34-25.41,7.47-37.79,4.12-12.38,10.6-23.41,19.43-33.09,11.38-12.52,24.55-20.71,39.5-24.55,14.94-3.84,30.38-5.76,46.33-5.76l86.68-.43v46.97h-78.57c-16.51.29-29.75,2.78-39.71,7.47-9.97,4.7-15.23,16.44-15.8,35.23l134.08-.43v46.97h-134.08c.57,19.64,5.55,31.6,14.94,35.87,9.39,4.27,22.77,6.4,40.14,6.4l79-.43v46.97h-86.68c-15.95,0-31.38-1.92-46.33-5.76Z"/>
    <path id="b" class="cls-1" d="m2220.34,366.95h51.24c17.36.29,33.73,2.56,49.11,6.83s28.75,13.66,40.14,28.18c9.39,11.96,15.94,25.13,19.64,39.5,3.7,14.38,5.12,29.11,4.27,44.2-1.43,33.03-11.6,59-30.53,77.93-18.93,18.93-45.2,28.39-78.78,28.39h-114.44v-306.59h59.35v81.56Zm36.29,48.68h-36.29v128.1c2.84.29,5.76.5,8.75.64,2.99.15,5.91.21,8.75.21,19.92.57,38.36-.99,55.3-4.7,16.93-3.7,26.54-18.36,28.82-43.98.28-3.42.49-6.9.64-10.46.14-3.56.21-7.05.21-10.46-.29-6.26-1.14-12.38-2.56-18.36-1.43-5.98-3.7-11.53-6.83-16.65-6.27-11.38-14.3-18.21-24.13-20.5-9.82-2.28-20.71-3.42-32.67-3.42v-.43Z"/>
    <path id="o" class="cls-1" d="m2604.21,565.08c-10.82,10.82-23.84,18.79-39.07,23.91-15.23,5.12-30.96,7.69-47.18,7.69s-31.88-2.56-46.97-7.69c-15.09-5.12-28.04-12.95-38.86-23.49-11.1-10.82-19.43-23.76-24.98-38.86-5.55-15.09-8.33-30.6-8.33-46.54s2.78-31.45,8.33-46.54c5.55-15.09,13.88-28.04,24.98-38.86,10.81-10.53,23.84-18.43,39.07-23.7,15.22-5.26,30.96-7.9,47.18-7.9s31.52,2.63,46.76,7.9c15.23,5.27,28.25,13.17,39.07,23.7,11.1,10.82,19.43,23.77,24.98,38.86,5.55,15.09,8.33,30.6,8.33,46.54s-2.78,31.46-8.33,46.54c-5.55,15.09-13.88,28.04-24.98,38.86v-.43Zm-106.32-20.92c1.99.85,3.91,1.57,5.76,2.14,1.85.57,3.63,1,5.34,1.28,13.66,2,26.47-.57,38.43-7.69,11.96-7.11,19.92-17.51,23.91-31.17,1.42-4.84,2.49-10.03,3.2-15.58.71-5.55,1.07-11.17,1.07-16.87-.57-12.52-3.56-24.41-8.97-35.65-5.41-11.24-14.09-19.43-26.05-24.55-2.56-1.13-5.27-1.99-8.11-2.56-2.85-.57-5.55-.99-8.11-1.28-13.1-1.13-25.34,1.85-36.72,8.97-11.39,7.12-19.08,17.08-23.06,29.89-1.43,4.84-2.5,9.89-3.2,15.16-.71,5.27-.93,10.46-.64,15.58.28,13.38,3.34,25.98,9.18,37.79,5.83,11.82,15.16,20.14,27.97,24.98v-.43Z"/>
    <path id="x" class="cls-1" d="m2640.93,366.95h69.17l48.25,67.89,49.53-67.89h68.32l-83.26,114.01,81.98,111.02h-69.17l-47.4-65.33-47.82,65.33h-68.75l82.84-112.3-83.69-112.73Z"/>
  </g>
  <g id="eb">
    <polygon id="e" class="cls-1" points="387.98 724.63 211.78 665.37 211.78 554.46 387.98 608.75 387.98 486.55 211.39 431.12 211.39 321.41 387.98 375.19 387.98 264.79 90.45 176.05 90.45 280.23 90.45 284.58 90.45 393.15 90.45 432.47 90.45 725.55 387.98 823.99 387.98 724.63"/>
    <polygon id="b-2" data-name="b" class="cls-1" points="401.37 264.36 401.37 374.61 575.76 321.8 575.76 432.81 401.37 486.05 401.37 608.18 575.76 554.12 575.76 662.83 401.37 723.92 401.37 823.15 697.09 717.77 697.09 488.37 697.09 185.56 401.37 264.36"/>
  </g>
</svg>